<?xml version="1.0" encoding="UTF-8"?>
<svg viewBox="0 0 680.75 871.39" xmlns="http://www.w3.org/2000/svg">
 <g stroke="#000">
  <path d="m473.82 141.52l30.686-17.716 30.686 17.716-30.686 17.717-30.686-17.717z" fill="#f00"/>
  <path d="m504.5 194.67l30.686-17.717v-35.433l-30.686 17.717v35.433z" fill="#ff8080"/>
  <path d="m473.82 141.52v35.433l30.686 17.717v-35.433l-30.686-17.717z" fill="#faa"/>
  <path d="m504.5 159.24l30.686-17.716 30.686 17.716-30.686 17.717-30.686-17.717z" fill="#f00"/>
  <path d="m535.19 212.39l30.686-17.717v-35.433l-30.686 17.717v35.433z" fill="#ff8080"/>
  <path d="m504.5 159.24v35.433l30.686 17.717v-35.433l-30.686-17.717z" fill="#faa"/>
  <path d="m535.19 176.96l30.686-17.716 30.686 17.716-30.686 17.717-30.686-17.717z" fill="#f00"/>
  <path d="m565.88 230.11l30.686-17.717v-35.433l-30.686 17.717v35.433z" fill="#ff8080"/>
  <path d="m535.19 176.96v35.433l30.686 17.717v-35.433l-30.686-17.717z" fill="#faa"/>
  <path d="m565.88 194.67l30.686-17.716 30.686 17.716-30.686 17.717-30.686-17.717z" fill="#f00"/>
  <path d="m596.56 247.82l30.686-17.717v-35.433l-30.686 17.717v35.433z" fill="#ff8080"/>
  <path d="m565.88 194.67v35.433l30.686 17.717v-35.433l-30.686-17.717z" fill="#faa"/>
  <path d="m163.93 347.11l30.686-17.716 30.686 17.716-30.686 17.717-30.686-17.717z" fill="#fc0"/>
  <path d="m194.62 400.26l30.686-17.717v-35.433l-30.686 17.717v35.433z" fill="#fd5"/>
  <path d="m163.93 347.11v35.433l30.686 17.717v-35.433l-30.686-17.717z" fill="#fea"/>
  <path d="m194.62 364.83l30.686-17.716 30.686 17.716-30.686 17.717-30.686-17.717z" fill="#fc0"/>
  <path d="m225.3 417.98l30.686-17.717v-35.433l-30.686 17.717v35.433z" fill="#fd5"/>
  <path d="m194.62 364.83v35.433l30.686 17.717v-35.433l-30.686-17.717z" fill="#fea"/>
  <path d="m225.3 382.55l30.686-17.716 30.686 17.716-30.686 17.717-30.686-17.717z" fill="#fc0"/>
  <path d="m255.99 435.7l30.686-17.717v-35.433l-30.686 17.717v35.433z" fill="#fd5"/>
  <path d="m225.3 382.55v35.433l30.686 17.717v-35.433l-30.686-17.717z" fill="#fea"/>
  <path d="m194.62 400.26l30.686-17.716 30.686 17.716-30.686 17.717-30.686-17.717z" fill="#fc0"/>
  <path d="m225.3 453.41l30.686-17.717v-35.433l-30.686 17.717v35.433z" fill="#fd5"/>
  <path d="m194.62 400.26v35.433l30.686 17.717v-35.433l-30.686-17.717z" fill="#fea"/>
  <path d="m108.19 153l30.686-17.717 30.686 17.717-30.686 17.716-30.686-17.716z" fill="#71c837"/>
  <path d="m138.87 206.15l30.686-17.717v-35.433l-30.686 17.717v35.433z" fill="#aade87"/>
  <path d="m108.19 153v35.433l30.686 17.717v-35.433l-30.686-17.716z" fill="#e3f4d7"/>
  <path d="m138.87 170.71l30.686-17.716 30.686 17.716-30.686 17.717-30.686-17.717z" fill="#71c837"/>
  <path d="m169.56 223.86l30.686-17.717v-35.433l-30.686 17.717v35.433z" fill="#aade87"/>
  <path d="m138.87 170.71v35.433l30.686 17.717v-35.433l-30.686-17.717z" fill="#e3f4d7"/>
  <path d="m77.5 170.71l30.686-17.716 30.686 17.716-30.686 17.717-30.686-17.717z" fill="#71c837"/>
  <path d="m108.19 223.86l30.686-17.717v-35.433l-30.686 17.717v35.433z" fill="#aade87"/>
  <path d="m77.5 170.71v35.433l30.686 17.717v-35.433l-30.686-17.717z" fill="#e3f4d7"/>
  <path d="m108.19 188.43l30.686-17.717 30.686 17.717-30.686 17.717-30.686-17.717z" fill="#71c837"/>
  <path d="m138.87 241.58l30.686-17.717v-35.433l-30.686 17.717v35.433z" fill="#aade87"/>
  <path d="m108.19 188.43v35.433l30.686 17.717v-35.433l-30.686-17.717z" fill="#e3f4d7"/>
  <path d="m267.7 154.57l30.686-17.716 30.686 17.716-30.686 17.717-30.686-17.717z" fill="#2c89a0"/>
  <path d="m298.39 207.72l30.686-17.717v-35.433l-30.686 17.717v35.433z" fill="#5fbcd3"/>
  <path d="m267.7 154.57v35.433l30.686 17.717v-35.433l-30.686-17.717z" fill="#afdde9"/>
  <path d="m328.82 154.64l30.686-17.716 30.686 17.716-30.686 17.717-30.686-17.717z" fill="#2c89a0"/>
  <path d="m359.5 207.79l30.686-17.717v-35.433l-30.686 17.717v35.433z" fill="#5fbcd3"/>
  <path d="m328.82 154.64v35.433l30.686 17.717v-35.433l-30.686-17.717z" fill="#afdde9"/>
  <path d="m298.39 172.29l30.686-17.716 30.686 17.716-30.686 17.717-30.686-17.717z" fill="#2c89a0"/>
  <path d="m329.07 225.44l30.686-17.717v-35.433l-30.686 17.717v35.433z" fill="#5fbcd3"/>
  <path d="m298.39 172.29v35.433l30.686 17.717v-35.433l-30.686-17.717z" fill="#afdde9"/>
  <path d="m359.57 172.26l30.686-17.716 30.686 17.716-30.686 17.717-30.686-17.717z" fill="#2c89a0"/>
  <path d="m390.25 225.41l30.686-17.717v-35.433l-30.686 17.717v35.433z" fill="#5fbcd3"/>
  <path d="m359.57 172.26v35.433l30.686 17.717v-35.433l-30.686-17.717z" fill="#afdde9"/>
  <path d="m339.5 285.59l30.686-17.717 30.686 17.717-30.686 17.717-30.686-17.717z" fill="#c837ab"/>
  <path d="m370.19 338.74l30.686-17.717v-35.433l-30.686 17.717v35.433z" fill="#de87cd"/>
  <path d="m339.5 285.59v35.433l30.686 17.717v-35.433l-30.686-17.717z" fill="#e9afdd"/>
  <path d="m400.87 285.59l30.686-17.717 30.686 17.717-30.686 17.717-30.686-17.717z" fill="#c837ab"/>
  <path d="m431.56 338.74l30.686-17.717v-35.433l-30.686 17.717v35.433z" fill="#de87cd"/>
  <path d="m400.87 285.59v35.433l30.686 17.717v-35.433l-30.686-17.717z" fill="#e9afdd"/>
  <path d="m370.19 303.31l30.686-17.716 30.686 17.716-30.686 17.717-30.686-17.717z" fill="#c837ab"/>
  <path d="m400.87 356.46l30.686-17.717v-35.433l-30.686 17.717v35.433z" fill="#de87cd"/>
  <path d="m370.19 303.31v35.433l30.686 17.717v-35.433l-30.686-17.717z" fill="#e9afdd"/>
  <path d="m400.87 321.03l30.686-17.717 30.686 17.717-30.686 17.717-30.686-17.717z" fill="#c837ab"/>
  <path d="m431.56 374.18l30.686-17.716v-35.433l-30.686 17.717v35.433z" fill="#de87cd"/>
  <path d="m400.87 321.03v35.433l30.686 17.716v-35.433l-30.686-17.717z" fill="#e9afdd"/>
 </g>
</svg>
